# Blender 4.1.0
# www.blender.org
mtllib tolcser_v4.mtl
o tolcser_v2
v -0.503192 0.331892 0.485881
v -0.503192 0.331892 -0.485881
v 0.503193 0.331892 0.485881
v 0.503193 0.331892 -0.485881
v -3.117954 0.312072 -3.117954
v -3.117954 0.312072 3.117954
v 3.117954 0.312072 -3.117954
v 3.117954 0.312072 3.117954
v -0.389390 -0.772312 0.383778
v -0.389390 -0.772312 -0.383778
v 0.389390 -0.772312 0.383778
v 0.389390 -0.772312 -0.383778
v -0.424638 0.632072 0.407644
v -0.424638 0.632072 -0.407643
v 0.424639 0.632072 0.407644
v 0.424639 0.632072 -0.407643
v -3.117954 0.632072 -3.117954
v -3.117954 0.632072 3.117954
v 3.117954 0.632072 -3.117954
v 3.117954 0.632072 3.117954
v -0.171316 -0.690197 0.164460
v -0.171316 -0.690197 -0.164460
v 0.171316 -0.690197 0.164460
v 0.171316 -0.690197 -0.164460
vn 0.0076 -1.0000 -0.0000
vn -0.0000 -1.0000 0.0075
vn -0.0076 -1.0000 -0.0000
vn -0.0000 -1.0000 -0.0075
vn 0.9947 -0.1025 -0.0000
vn -0.9947 -0.1025 -0.0000
vn -0.0000 -0.0921 0.9958
vn -0.0000 -0.0921 -0.9958
vn -0.0000 1.0000 -0.0000
vn -0.9821 0.1882 -0.0000
vn 0.9821 0.1882 -0.0000
vn -0.0000 0.1809 -0.9835
vn -0.0000 0.1809 0.9835
vn -1.0000 -0.0000 -0.0000
vn -0.0000 -0.0000 -1.0000
vn 1.0000 -0.0000 -0.0000
vn -0.0000 -0.0000 1.0000
vn 0.3524 -0.9359 -0.0000
vn -0.0000 -0.9365 0.3506
vn -0.3524 -0.9359 -0.0000
vn -0.0000 -0.9365 -0.3506
vt 0.234308 0.609308
vt 0.234308 0.640692
vt 0.125000 0.750000
vt 0.125000 0.500000
vt 0.265692 0.609308
vt 0.375000 0.500000
vt 0.265692 0.640692
vt 0.375000 0.750000
s 0
f 2/1/1 1/2/1 6/3/1 5/4/1
f 4/5/2 2/1/2 5/4/2 7/6/2
f 3/7/3 4/5/3 7/6/3 8/8/3
f 1/2/4 3/7/4 8/8/4 6/3/4
f 4/5/5 3/7/5 11/7/5 12/5/5
f 1/2/6 2/1/6 10/1/6 9/2/6
f 3/7/7 1/2/7 9/2/7 11/7/7
f 2/1/8 4/5/8 12/5/8 10/1/8
f 14/1/9 17/4/9 18/3/9 13/2/9
f 16/5/9 19/6/9 17/4/9 14/1/9
f 15/7/9 20/8/9 19/6/9 16/5/9
f 13/2/9 18/3/9 20/8/9 15/7/9
f 16/5/10 24/5/10 23/7/10 15/7/10
f 13/2/11 21/2/11 22/1/11 14/1/11
f 15/7/12 23/7/12 21/2/12 13/2/12
f 14/1/13 22/1/13 24/5/13 16/5/13
f 5/4/14 6/3/14 18/3/14 17/4/14
f 7/6/15 5/4/15 17/4/15 19/6/15
f 8/8/16 7/6/16 19/6/16 20/8/16
f 6/3/17 8/8/17 20/8/17 18/3/17
f 9/2/18 10/1/18 22/1/18 21/2/18
f 10/1/19 12/5/19 24/5/19 22/1/19
f 12/5/20 11/7/20 23/7/20 24/5/20
f 11/7/21 9/2/21 21/2/21 23/7/21
